<svg xmlns="http://www.w3.org/2000/svg" viewBox="0 0 685.81 200.18"><g id="Layer_2" data-name="Layer 2"><g id="Layer_1-2" data-name="Layer 1"><path d="M25.48 40.84a.89.89 0 00-.82.94v112.66a6.15 6.15 0 006.31 6h26.59a5.15 5.15 0 005.29-5v-44.2a.65.65 0 011.17-.39l20.73 27.5c10.57 14 25.94 22.09 42.12 22.09h.38a.89.89 0 00.82-.94v32.78a8 8 0 01-8.13 7.93H8.13A8 8 0 010 192.26V48.77a8 8 0 018.13-7.93h17.35" fill="#009686"/><path d="M144.93 0H32.45a7.69 7.69 0 00-7.79 7.6v34.18a.89.89 0 01.82-.94h3.15C43 40.84 56.74 48 66.16 60.52L88.7 90.43a.65.65 0 001.17-.43V47.16a6.51 6.51 0 016.68-6.32h25.19a6.15 6.15 0 016.31 6v112.63a.89.89 0 01-.82.94h17.69a7.69 7.69 0 007.79-7.6V7.6a7.69 7.69 0 00-7.78-7.6z" fill="#008ec3"/><path d="M89.87 90a.65.65 0 01-1.17.39L66.16 60.52C56.74 48 43 40.84 28.63 40.84h-3.15a.89.89 0 00-.82.94v112.66a6.15 6.15 0 006.31 6h26.59a5.15 5.15 0 005.29-5v-44.2a.65.65 0 011.17-.39l20.73 27.5c10.57 14 25.94 22.09 42.12 22.09h.38a.89.89 0 00.82-.94V46.81a6.15 6.15 0 00-6.31-6H96.55a6.51 6.51 0 00-6.68 6.32zm444.41 42.84c-16.73 0-29.65-13.82-29.65-31.55v-.2c0-17.63 12.72-31.35 29.55-31.35 10.52 0 17.53 4.4 23.64 10.32l3.71-3.8C554.31 69.64 546.8 65 534.28 65c-20.24 0-35.06 16.43-35.06 36.26v.2c0 20.13 14.82 36.06 34.86 36.06 12.42 0 20.43-4.91 27.85-12.22l-3.51-3.4c-7.12 7.04-14.03 10.94-24.14 10.94zm64.3-34.16c-16.63-3.4-20.43-7.91-20.43-15.32v-.2c0-7.31 6.81-13.22 17.13-13.22a30.18 30.18 0 0120.93 7.91l3.31-4.11c-7.11-5.71-13.83-8.51-24-8.51-13 0-22.54 8-22.54 18.43v.2c0 10.62 6.81 16.33 23.64 19.73 15.93 3.2 19.83 7.51 19.83 14.92v.2c0 8-7.21 13.92-17.73 13.92-10.32 0-17.43-3.3-25.14-10.42l-3.4 3.9c8.41 7.52 17 11.22 28.25 11.22 13.52 0 23.24-7.81 23.24-19.13v-.2c-.05-10.2-6.86-16-23.09-19.32zm82.02-32.45v32.46h-44.88V66.23h-5.21v70.12h5.21v-32.86h44.88v32.86h5.21V66.23h-5.21zm-397.14-2.29c-21.73 0-37.52 16.4-37.52 36.42v.2c0 20 15.59 36.22 37.32 36.22s37.52-16.4 37.52-36.42v-.2c0-20.03-15.59-36.22-37.32-36.22zm21.13 36.62c0 12.07-8.65 21.93-21.13 21.93s-21.32-10.06-21.32-22.13v-.2c0-12.07 8.65-21.93 21.13-21.93s21.33 10.06 21.33 22.13zm74.04-35.16a11.17 11.17 0 00-10.47 7.28L352.45 115l-15.71-42.32a11.17 11.17 0 00-10.47-7.28h-9.33l28.47 70.92h13.68l28.47-70.92zm-154.51 4.79v38.64l-29-38.16a13.15 13.15 0 00-10.47-5.19h-7.76v70.42h15.29V91.13l30.5 40a12 12 0 009.55 4.73h6.55V65.39h-14.66zm173.5-4.79l-30.18 70.92h9.8a8.92 8.92 0 008.26-5.55l4.18-10.24h29.78l4.18 10.24a8.92 8.92 0 008.26 5.55h10.2L411.91 65.4zm-2.41 41.45L404.56 84l9.35 22.84zm50.29 23.42l2.58 6.08h2.62v-31.76h39.67v-4.8H450.7V71.04h44.18v-4.81H445.5v64.04z" fill="#1d3767"/></g></g></svg>